<svg width="20" height="20" viewBox="0 0 20 20" fill="none" xmlns="http://www.w3.org/2000/svg">
<path d="M10.3836 9.32012L15.5584 6.34928C14.4371 4.60286 12.4458 3.44288 10.3836 3.33333V9.32012ZM9.99694 16.6538C11.5436 16.6538 13.0258 16.106 14.2115 15.1265L9.52006 10.5445C9.38473 10.4157 9.33962 10.3061 9.33962 10.0999V3.35911C5.99501 3.68777 3.3335 6.5555 3.3335 9.99033C3.3335 13.6378 6.34945 16.6538 9.99694 16.6538ZM16.6668 9.98388C16.6668 9.04301 16.4477 8.07636 16.0611 7.26437L10.8154 10.2803L14.9849 14.3789C16.0288 13.2125 16.6668 11.6401 16.6668 9.98388Z" fill="#2D3540"/>
</svg>
